<?xml version="1.0" encoding="UTF-8" standalone="no"?><svg xmlns="http://www.w3.org/2000/svg" width="316" height="241"><path d="M75.75 1c-7.168 0-13 5.832-13 13v13.5c0 7.168 5.832 13 13 13h163c7.168 0 13-5.832 13-13V14c0-7.168-5.832-13-13-13h-163z" fill="#6c83c0"/><path d="M238.75 0h-163c-7.72 0-14 6.28-14 14v13.5c0 7.72 6.28 14 14 14h163c7.72 0 14-6.28 14-14V14c0-7.72-6.28-14-14-14zm-175 14c0-6.628 5.373-12 12-12h163c6.626 0 12 5.372 12 12v13.5c0 6.627-5.374 12-12 12h-163c-6.627 0-12-5.373-12-12V14z" fill="#fff"/><path fill="#6C83C0" d="M75.75 157.333c-6.065 0-11 4.935-11 11v13.5c0 6.065 4.935 11 11 11h163c6.065 0 11-4.935 11-11v-13.5c0-6.065-4.935-11-11-11h-163z"/><path fill="#fff" d="M238.75 156.333h-163c-6.627 0-12 5.373-12 12v13.5c0 6.627 5.373 12 12 12h163c6.626 0 12-5.373 12-12v-13.5c0-6.627-5.374-12-12-12zm-163 35.5c-5.514 0-10-4.485-10-10v-13.5c0-5.514 4.486-10 10-10h163c5.514 0 10 4.486 10 10v13.5c0 5.515-4.486 10-10 10h-163z"/><path fill="#6C83C0" d="M75.75 203.5c-6.065 0-11 4.934-11 11V228c0 6.064 4.935 11 11 11h163c6.065 0 11-4.936 11-11v-13.5c0-6.066-4.935-11-11-11h-163z"/><path fill="#fff" d="M238.75 202.5h-163c-6.627 0-12 5.372-12 12V228c0 6.627 5.373 12 12 12h163c6.626 0 12-5.373 12-12v-13.5c0-6.628-5.374-12-12-12zm-163 35.5c-5.514 0-10-4.486-10-10v-13.5c0-5.515 4.486-10 10-10h163c5.514 0 10 4.485 10 10V228c0 5.514-4.486 10-10 10h-163z"/><text x="157" y="26" font-family="Arial, sans-serif" font-weight="bold" font-size="13pt" text-anchor="middle" fill="#fff">Operating system</text><text x="157" y="182" font-family="Arial, sans-serif" font-weight="bold" font-size="13pt" text-anchor="middle" fill="#fff">Firmware</text><text x="157" y="228" font-family="Arial, sans-serif" font-weight="bold" font-size="13pt" text-anchor="middle" fill="#fff">Hardware</text><path fill="#fff" d="M158.5 32.932l-2.687 2.44-10.695 9.706-10.694 9.707-7.67 6.962h17.373v.42H16c-8.822 0-16 7.177-16 16v39.5c0 8.82 7.178 16 16 16h128.127v1.117h-17.374l7.67 6.962 10.696 9.707 10.69 9.706 2.69 2.44 2.69-2.44 10.69-9.71 10.69-9.71 7.67-6.96h-17.37v-1.12H298.5c8.822 0 16-7.18 16-16v-39.5c0-8.82-7.178-16-16-16H172.875v-.42h17.375l-7.67-6.96-10.696-9.71-10.694-9.707-2.69-2.44zm-21.39 24.815l10.694-9.707 10.696-9.706 10.695 9.706 10.694 9.707h-11.02v8.42H298.5c6.627 0 12 5.372 12 12v39.5c0 6.626-5.373 12-12 12H168.876v9.117h11.015l-10.69 9.706-10.69 9.707-10.692-9.706-10.694-9.7h11.016v-9.12H16c-6.627 0-12-5.37-12-12v-39.5c0-6.622 5.373-12 12-12h132.126v-8.42H137.11z"/><path fill="#fff" stroke="#6C83C0" stroke-width="3" d="M298.5 66.166H168.875v-8.42h11.017l-10.695-9.706-10.694-9.706-10.696 9.706-10.694 9.707h11.016v8.42H16c-6.627 0-12 5.372-12 12v39.5c0 6.626 5.373 12 12 12h132.127v9.117H137.11l10.695 9.707 10.695 9.71 10.693-9.7 10.694-9.704H168.87v-9.12H298.5c6.627 0 12-5.372 12-12v-39.5c0-6.626-5.373-12-12-12z"/><text x="157" y="104" font-family="Arial, sans-serif" font-weight="bold" font-size="13pt" text-anchor="middle" fill="#6C83C0">Extensible Firmware Interface</text></svg>