<?xml version="1.0" encoding="UTF-8" standalone="no"?>
<!-- Created with Inkscape (http://www.inkscape.org/) -->

<svg
   xmlns:dc="http://purl.org/dc/elements/1.1/"
   xmlns:cc="http://creativecommons.org/ns#"
   xmlns:rdf="http://www.w3.org/1999/02/22-rdf-syntax-ns#"
   xmlns:svg="http://www.w3.org/2000/svg"
   xmlns="http://www.w3.org/2000/svg"
   xmlns:sodipodi="http://sodipodi.sourceforge.net/DTD/sodipodi-0.dtd"
   xmlns:inkscape="http://www.inkscape.org/namespaces/inkscape"
   width="2403"
   height="1950"
   viewBox="0 0 2402.9999 1950"
   id="svg2"
   version="1.1"
   inkscape:version="0.91 r"
   sodipodi:docname="mbr.svg">
  <defs
     id="defs4" />
  <sodipodi:namedview
     id="base"
     pagecolor="#ffffff"
     bordercolor="#666666"
     borderopacity="1.0"
     inkscape:pageopacity="0.0"
     inkscape:pageshadow="2"
     inkscape:zoom="0.25"
     inkscape:cx="1726.439"
     inkscape:cy="1338.0043"
     inkscape:document-units="px"
     inkscape:current-layer="layer1"
     showgrid="false"
     inkscape:window-width="1366"
     inkscape:window-height="716"
     inkscape:window-x="0"
     inkscape:window-y="0"
     inkscape:window-maximized="1"
     inkscape:object-paths="false"
     units="px"
     width="298mm" />
  <metadata
     id="metadata7">
    <rdf:RDF>
      <cc:Work
         rdf:about="">
        <dc:format>image/svg+xml</dc:format>
        <dc:type
           rdf:resource="http://purl.org/dc/dcmitype/StillImage" />
        <dc:title></dc:title>
      </cc:Work>
    </rdf:RDF>
  </metadata>
  <g
     inkscape:label="Layer 1"
     inkscape:groupmode="layer"
     id="layer1"
     transform="translate(0,897.63801)">
    <rect
       style="fill:#3c6ad1;fill-opacity:1"
       id="rect3338"
       width="877.14282"
       height="988.57141"
       x="0"
       y="-897.92352"
       ry="0" />
    <text
       xml:space="preserve"
       style="font-style:normal;font-weight:normal;font-size:40px;line-height:100%;font-family:sans-serif;letter-spacing:0px;word-spacing:0px;fill:#000000;fill-opacity:1;stroke:none;stroke-width:1px;stroke-linecap:butt;stroke-linejoin:miter;stroke-opacity:1"
       x="91.428589"
       y="-406.49493"
       id="text4159"
       sodipodi:linespacing="100%"><tspan
         sodipodi:role="line"
         id="tspan4161"
         x="91.428589"
         y="-406.49493"
         style="font-style:normal;font-variant:normal;font-weight:normal;font-stretch:normal;font-size:112.5px;line-height:100%;font-family:Amaranth;-inkscape-font-specification:'Amaranth, Normal';text-align:start;writing-mode:lr-tb;text-anchor:start;fill:#ffffff">bootstrap code</tspan><tspan
         sodipodi:role="line"
         x="91.428589"
         y="-293.99493"
         style="font-style:normal;font-variant:normal;font-weight:normal;font-stretch:normal;font-size:112.5px;line-height:100%;font-family:Amaranth;-inkscape-font-specification:'Amaranth, Normal';text-align:start;writing-mode:lr-tb;text-anchor:start;fill:#ffffff"
         id="tspan4171">area 446 bytes</tspan></text>
    <rect
       style="fill:#3c6ad1;fill-opacity:1"
       id="rect4173"
       width="20"
       height="14.285714"
       x="280"
       y="-592.20923" />
    <rect
       style="fill:#55d400;fill-opacity:1"
       id="rect3338-4"
       width="877.14282"
       height="434.28571"
       x="-0.57141113"
       y="88.647949"
       ry="0" />
    <text
       xml:space="preserve"
       style="font-style:normal;font-weight:normal;font-size:40px;line-height:100%;font-family:sans-serif;letter-spacing:0px;word-spacing:0px;fill:#000000;fill-opacity:1;stroke:none;stroke-width:1px;stroke-linecap:butt;stroke-linejoin:miter;stroke-opacity:1"
       x="103.63184"
       y="265.83008"
       id="text4159-3"
       sodipodi:linespacing="100%"><tspan
         sodipodi:role="line"
         x="103.63184"
         y="265.83008"
         style="font-style:normal;font-variant:normal;font-weight:normal;font-stretch:normal;font-size:112.5px;line-height:100%;font-family:Amaranth;-inkscape-font-specification:'Amaranth, Normal';text-align:start;writing-mode:lr-tb;text-anchor:start;fill:#ffffff"
         id="tspan4171-3">partition table</tspan><tspan
         sodipodi:role="line"
         x="103.63184"
         y="378.33008"
         style="font-style:normal;font-variant:normal;font-weight:normal;font-stretch:normal;font-size:112.5px;line-height:100%;font-family:Amaranth;-inkscape-font-specification:'Amaranth, Normal';text-align:start;writing-mode:lr-tb;text-anchor:start;fill:#ffffff"
         id="tspan4213">64 bytes</tspan></text>
    <rect
       style="fill:#aa0088;fill-opacity:1"
       id="rect3338-4-8"
       width="877.14282"
       height="434.28571"
       x="-1.7142334"
       y="522.07642"
       ry="0" />
    <text
       xml:space="preserve"
       style="font-style:normal;font-weight:normal;font-size:40px;line-height:100%;font-family:sans-serif;letter-spacing:0px;word-spacing:0px;fill:#000000;fill-opacity:1;stroke:none;stroke-width:1px;stroke-linecap:butt;stroke-linejoin:miter;stroke-opacity:1"
       x="97.269409"
       y="697.31494"
       id="text4159-3-3"
       sodipodi:linespacing="100%"><tspan
         sodipodi:role="line"
         x="97.269409"
         y="697.31494"
         style="font-style:normal;font-variant:normal;font-weight:normal;font-stretch:normal;font-size:112.5px;line-height:100%;font-family:Amaranth;-inkscape-font-specification:'Amaranth, Normal';text-align:start;writing-mode:lr-tb;text-anchor:start;fill:#ffffff"
         id="tspan4213-7">magic number</tspan><tspan
         sodipodi:role="line"
         x="97.269409"
         y="809.81494"
         style="font-style:normal;font-variant:normal;font-weight:normal;font-stretch:normal;font-size:112.5px;line-height:100%;font-family:Amaranth;-inkscape-font-specification:'Amaranth, Normal';text-align:start;writing-mode:lr-tb;text-anchor:start;fill:#ffffff"
         id="tspan4253">2 bytes</tspan></text>
    <rect
       style="opacity:1;fill:#00d4aa;fill-opacity:1"
       id="rect8216"
       width="1208.5715"
       height="722.85724"
       x="1197.1428"
       y="-57.923584"
       ry="54.285713" />
    <path
       style="opacity:1;fill:#008000;fill-opacity:1"
       id="path8220"
       d="m 922.38638,323.64451 c 12.18639,0.5427 24.38095,0.42055 36.57113,0.39882 11.33768,-0.0185 22.67531,-0.0816 34.01276,-0.19333 7.39123,-0.12015 14.78283,-0.0324 22.17413,-0.14326 4.3309,0.0755 8.663,-0.23092 12.9928,-0.0986 6.2272,0.12324 12.4548,0.114 18.6823,0.16021 5.4299,0.0524 10.8588,-0.14018 16.2884,-0.17145 6.8525,0.19502 13.706,0.20149 20.5594,0.16097 5.0431,-0.19841 10.0845,-0.10475 15.1281,-0.0739 6.1331,0.10013 12.2668,0.0647 18.3998,-0.0416 6.4692,-0.0493 12.9376,0.15805 19.4067,0.22599 9.1086,0.077 18.2175,0.0447 27.3255,-0.14019 7.1973,-0.40961 14.4814,1.04275 21.6062,-0.78502 16.0047,-5.85627 -0.077,-0.35924 -32.705,29.15839 -0.3869,0.35015 1.3213,1.75784 0.8927,1.55265 -1.1622,-0.55658 -2.1327,-1.80759 -3.1998,-2.70939 -9.1576,-7.26703 -18.6995,-13.2986 -28.0456,-20.00043 -11.9987,-8.2172 -23.5967,-17.74654 -35.1382,-27.37689 -10.5626,-9.55166 -21.9234,-16.59235 -33.5248,-22.50137 -9.1915,-4.45427 -18.3795,-8.83989 -27.5541,-13.37657 -23.4528,-9.20887 18.6159,-42.07751 33.8142,-40.97922 10.1059,1.94308 19.4508,8.21456 28.618,14.689 10.375,7.64462 20.2604,16.69204 30.3509,25.14987 6.9966,6.52673 14.599,10.49901 22.6212,12.54132 5.0698,2.86376 9.9361,6.06619 15.2667,7.60486 5.7834,1.32439 11.4635,3.62771 17.1923,5.47056 2.89,0.69214 4.3196,5.0107 4.87,9.03989 0.2771,2.95532 0.1291,5.95796 0.09,8.93095 -0.082,3.49046 -0.061,6.98385 -0.1,10.4758 0.035,3.38257 0.052,6.75698 -0.061,10.1357 -0.8005,6.31086 -4.3479,9.74719 -7.5918,13.16442 -7.5391,7.2524 -13.8256,17.23883 -19.8479,27.21309 -8.451,13.36422 -16.9527,26.61353 -25.7927,39.36958 -17.3831,22.77482 -37.4108,40.57577 -57.8995,55.86728 -0.5796,0.38851 -1.1253,0.93137 -1.7389,1.16568 -3.5707,1.36378 -7.2,1.92313 -10.7808,3.65462 -2.8022,1.355 -7.3916,4.22506 -10.1711,5.91372 -14.3074,8.93814 -33.6873,31.11603 28.1035,-25.85608 0.2449,-0.22583 -0.5491,-0.4036 -0.6861,-0.78949 -0.9411,-2.64946 -0.7449,-2.5082 -0.3735,-4.75591 3.2831,-1.95239 6.3872,-3.83593 9.5637,-6.16867 12.6567,-10.16405 31.7757,-25.7484 -26.2242,23.42799 -1.5289,1.29615 2.8799,-3.04028 4.2771,-4.65115 3.2615,-3.76046 5.2956,-6.54132 8.3966,-10.59169 4.6921,-6.25663 9.1532,-12.90193 13.6159,-19.5389 6.6925,-10.65993 12.7764,-22.18329 19.399,-32.94427 4.2069,-6.07285 8.0574,-12.57565 12.5187,-18.21595 3.8392,-5.41692 7.9076,-10.40559 12.1209,-15.10727 0,0 39.5236,-23.88689 39.5236,-23.88689 l 0,0 c -4.4611,4.39559 -8.8852,9.00345 -12.7144,14.67239 -1.0007,1.39691 -2.0013,2.79365 -3.002,4.1904 -0.838,0.82277 -1.7472,1.49488 -2.5141,2.4683 -2.5715,3.26411 -3.9321,8.80936 -7.0896,11.17352 -7.0622,9.86073 -13.0692,21.44062 -19.1388,32.72475 -4.4915,7.06738 -9.2292,13.73887 -14.0409,20.28526 -17.303,23.53475 -37.0442,42.2609 -58.3286,56.42648 -3.5119,2.09859 -6.9288,4.73696 -10.812,4.4321 -0.623,-0.56382 -1.3669,-0.89101 -1.8691,-1.69144 -1.6157,-2.57552 -2.9914,-6.71508 -2.1769,-7.51151 16.4952,-16.12968 28.0982,-28.59766 44.3556,-37.78289 7.5674,-4.17607 15.5287,-6.74003 22.8203,-11.83885 13.3269,-11.20725 2.563,-2.19286 -30.9365,27.79292 -1.2267,1.09805 2.4886,-2.1066 3.6839,-3.28383 4.7407,-4.66871 9.1342,-10.15649 13.6648,-15.27564 8.7314,-12.56164 17.2798,-25.33263 25.5088,-38.6679 5.9717,-10.08964 12.1767,-20.0163 19.0578,-28.62616 2.8982,-2.49788 6.2723,-5.40229 8.5925,-8.69705 1.3018,-1.82824 0.3517,-5.86967 0.6281,-8.41884 -0.028,-3.51737 0.014,-7.03258 0.013,-10.54979 0.04,-2.69228 0.066,-5.38426 0.1666,-8.07377 0.05,-2.34861 -0.3873,-1.71162 -2.0056,-2.35138 -5.5963,-2.20442 -11.2233,-4.22768 -16.9274,-5.66325 -5.2071,-1.99968 -10.1112,-5.25748 -15.2723,-7.48223 -8.1285,-3.04338 -15.7951,-7.90391 -22.9727,-14.58578 -9.8497,-8.73022 -19.7373,-17.35111 -30.0432,-24.76629 -8.9174,-5.96454 -18.1768,-12.0976 -28.0998,-11.61283 -16.3536,3.26288 6.5998,-0.87172 33.4504,-30.85646 1.2151,-1.35698 -1.7911,-3.72822 -2.5131,-5.75521 -0.2603,-0.73106 4.0685,2.95548 4.3898,2.52729 8.9254,4.99647 17.9824,9.34624 26.9938,13.95591 11.737,6.34901 23.2701,13.50267 33.9982,23.31536 11.439,9.59265 22.8537,19.3504 34.8808,27.12143 9.6219,6.69993 19.5114,12.46727 28.9207,19.85969 21.2944,19.93728 -15.4601,45.82201 -34.3248,46.17955 -7.2849,0.45506 -14.5831,0.13095 -21.8728,0.26774 -9.0246,-0.18979 -18.0502,-0.21351 -27.0755,-0.14018 -6.6036,0.0678 -13.2066,0.27251 -19.8104,0.22583 -6.108,-0.10937 -12.2168,-0.13864 -18.325,-0.0416 -4.9998,0.0308 -9.9974,0.12786 -14.9965,-0.0739 -6.9493,-0.0416 -13.8986,-0.0293 -20.8471,0.16098 -5.3274,-0.0308 -10.6541,-0.2266 -15.9818,-0.17161 -6.323,0.0462 -12.6461,0.0385 -18.96872,0.16037 -4.27111,0.12324 -8.54386,-0.16607 -12.81605,-0.0986 -7.30611,-0.11246 -14.61268,-0.02 -21.91881,-0.14327 -11.22228,-0.11245 -22.44475,-0.17484 -33.66726,-0.19333 -12.4278,-0.0216 -24.85942,-0.13094 -37.2837,0.39883 0,0 34.27378,-38.35995 34.27378,-38.35995 z"
       inkscape:connector-curvature="0" />
    <path
       style="opacity:1;fill:#00d400;fill-opacity:1"
       id="path8222"
       d="m 1240.9914,172.10456 c 27.83,-1.62555 55.2186,-7.03334 82.1425,-14.02825 28.2668,-9.03138 57.1883,-14.96082 86.3922,-19.92656 23.1245,-3.91855 46.0733,-8.79722 69.0819,-13.33318 17.0566,-3.16457 34.4666,-2.71016 51.7162,-3.66669 16.6581,-1.05536 33.3197,-2.03088 50.0074,-2.44058 15.5229,-0.25212 31.0488,-0.19553 46.5732,-0.1817 12.592,-0.0184 25.1838,-0.10864 37.7755,-0.19885 11.5948,-0.20902 23.1187,1.29637 34.6842,1.99027 12.9426,0.0577 25.6349,2.37784 38.3393,4.52298 11.258,1.54303 22.6157,2.03699 33.9302,3.06866 11.888,1.11247 23.1975,4.94775 34.6952,7.85543 9.1543,2.15143 18.6024,2.35942 27.9591,2.57646 9.6316,1.15847 19.2735,2.04081 28.9635,2.50022 12.2856,-0.002 24.4904,0.8263 36.7222,1.86766 10.5346,0.93505 21.1096,1.18838 31.6789,1.34734 11.7628,0.1708 23.5264,0.0546 35.2896,0.0671 12.6157,-0.47521 25.1501,0.566 37.7155,1.47395 12.1734,0.8301 24.3727,1.17226 36.5722,1.23423 7.1375,-0.65894 13.7815,1.6332 20.4278,3.94786 1.3021,0.57814 2.6042,1.15628 3.9062,1.73442 0,0 -34.9308,23.3323 -34.9308,23.3323 l 0,0 c -1.2413,-0.47992 -2.4826,-0.95983 -3.7239,-1.43975 -6.4654,-1.91149 -12.8709,-3.28511 -19.6605,-2.99131 -12.0975,-0.43641 -24.1984,-0.84515 -36.2757,-1.69822 -12.5822,-0.83275 -25.1486,-1.48743 -37.7661,-1.08134 -11.765,0.0217 -23.5305,-0.0657 -35.2952,-0.14237 -10.6404,-0.15953 -21.2861,-0.42565 -31.8752,-1.57599 -12.2096,-1.09227 -24.4135,-1.62411 -36.6745,-1.70062 -9.6901,-0.46859 -19.3037,-1.59608 -28.9662,-2.39282 -9.5936,-0.3021 -19.2751,-0.73839 -28.5747,-3.33658 -11.1692,-3.13188 -22.2795,-6.68682 -33.9416,-7.50185 -11.485,-0.96469 -23.0634,-1.10539 -34.4282,-3.16554 -12.4526,-2.31276 -24.9555,-4.28065 -37.6629,-4.40236 -11.6634,-0.6463 -23.3161,-1.74169 -35.0086,-1.46316 -12.3904,-0.10492 -24.7809,-0.21746 -37.1718,-0.23462 -15.5664,0.0273 -31.1346,0.0451 -46.6977,0.40148 -16.514,0.44374 -33.0171,1.16328 -49.5048,2.20928 -17.258,0.85928 -34.6394,0.98695 -51.6605,4.32753 -22.5963,4.22693 -45.2028,8.41091 -67.8567,12.31803 -29.1322,5.16369 -57.8896,11.64715 -86.2391,20.18697 -27.8009,6.83483 -55.9607,11.84226 -84.4385,14.91478 0,0 33.7804,-24.97462 33.7804,-24.97462 z"
       inkscape:connector-curvature="0" />
    <path
       style="opacity:1;fill:#00d400;fill-opacity:1"
       id="path8224"
       d="m 2063.3263,158.25926 c 24.1906,-1.76329 46.982,-10.6575 69.9654,-17.72705 20.7296,-6.6178 42.0376,-10.44434 63.6364,-12.633 24.0566,-2.51863 48.1697,-4.46281 72.3092,-5.97838 16.5114,-0.96611 33.0599,-0.51858 49.5866,-0.37935 18.0745,0.24699 36.1468,-0.24175 54.2198,-0.27621 5.3258,0.013 10.6513,-0.0237 15.9767,-0.0824 0,0 -33.9162,24.63894 -33.9162,24.63894 l 0,0 c -5.2414,-0.0651 -10.4829,-0.10636 -15.7247,-0.10354 -17.7709,-0.0722 -35.5402,-0.62493 -53.3134,-0.37468 -16.6669,0.1515 -33.337,0.3379 -49.9948,0.94062 -23.8799,0.99936 -47.735,2.69113 -71.4575,5.66707 -21.3193,2.77442 -42.4447,6.74097 -63.0257,13.08365 -23.7689,7.21527 -47.4054,16.05828 -72.3648,18.00165 0,0 34.103,-24.77732 34.103,-24.77732 z"
       inkscape:connector-curvature="0" />
    <path
       style="opacity:1;fill:#00d400;fill-opacity:1"
       id="path8226"
       d="m 2373.8166,405.8937 c -61.0749,-2.2707 -122.1995,-2.605 -183.3075,-2.1521 -132.4232,1.2049 -264.779,6.0608 -396.9693,13.8607 -92.0411,5.8365 -184.0157,12.8523 -276.1553,16.9923 -39.9547,1.519 -79.9417,1.7924 -119.9183,2.2868 -23.3019,0.9753 -46.431,-0.7369 -69.4223,-4.4256 -15.757,-2.0663 -31.1282,-6.0936 -46.4278,-10.2711 -3.7045,-0.2974 -5.9147,-4.0918 -9.1725,-5.0753 -5.6675,0.5382 -11.5601,0.097 -17.2979,0.1177 -6.1843,0.126 -12.3676,0.1235 -18.5525,0.076 -4.8067,-0.8087 -10.7394,1.562 -15.1793,-0.671 -1.271,-1.117 -2.8403,-1.7973 -4.3625,-2.5031 -1.0467,-1.1415 -2.2232,-2.1533 -3.3561,-3.207 -0.6071,-0.5714 -0.1779,-0.1158 -0.8901,-1.6533 0,0 37.5479,-20.4491 37.5479,-20.4491 l 0,0 c -0.1338,-0.1643 -0.2675,-0.3285 -0.4013,-0.4928 0.06,0.063 0.1204,0.1253 0.1805,0.188 0.7859,0.7975 1.6133,1.7847 2.6787,2.1528 1.1941,0.6826 2.421,1.582 3.743,1.8847 4.6301,-0.6281 9.4554,0.4454 14.1083,-0.01 6.1597,-0.065 12.3186,-0.1205 18.4783,-0.01 6.2329,0.033 13.1125,-0.8827 19.0342,1.1999 2.5908,1.8248 4.8287,4.0317 8.0751,4.7857 14.6881,4.7353 29.658,8.535 44.9744,10.6134 22.7605,3.5123 45.6445,4.6547 68.6741,4.1864 39.1104,0.4996 78.2272,0.385 117.331,-0.5677 89.788,-2.2578 179.4971,-6.6462 269.1549,-11.9466 133.3613,-7.4575 266.8084,-13.077 400.3475,-16.168 63.7279,-1.2429 127.4786,-1.4512 191.1878,-3.5192 0,0 -34.103,24.7773 -34.103,24.7773 z"
       inkscape:connector-curvature="0" />
    <path
       style="opacity:1;fill:#00d400;fill-opacity:1"
       id="path8228"
       d="m 1227.7874,163.89085 c 16.5535,0.3597 32.9677,-2.98237 49.2406,-5.63054 13.6648,-2.37907 27.3154,-4.64881 41.1756,-5.38916 8.1355,-0.21529 16.2753,-0.40391 24.4141,-0.44575 17.4059,-0.0441 12.5886,-3.23767 -33.0211,24.97683 -0.34,0.21037 -5.4223,-1.31331 -6.5537,-1.63499 -6.9763,-1.18981 -13.4462,-3.28 -19.3969,-7.09992 -0.4969,0.24482 -4.3619,-3.7039 -4.5609,-3.62147 -0.1703,0.0706 -0.012,0.36855 -0.018,0.55283 -1.5459,0.57857 -3.3142,0.38369 -4.9293,0.35571 -5.371,-0.13266 -10.7418,0.0334 -16.113,-0.0375 -8.6043,-0.12405 -17.2092,-0.10666 -25.814,-0.0693 -4.8619,0.05 -9.7231,0.1487 -14.5854,0.13917 -0.6718,-0.003 -1.3437,-0.006 -2.0155,-0.009 0,0 34.3345,-24.9454 34.3345,-24.9454 l 0,0 c 0.68,-0.003 1.36,-0.006 2.04,-0.009 4.7343,-0.009 9.4674,0.0879 14.2012,0.13965 8.6713,0.0376 17.3427,0.0528 26.0133,-0.0816 5.4363,-0.082 10.8734,0.0496 16.3089,-0.11796 2.0515,-0.0478 4.2172,-0.29499 6.0498,0.81502 1.494,1.40775 2.9526,2.85656 4.7175,3.93892 5.6082,3.43404 11.9453,4.88947 18.3665,6.06384 1.1789,0.19304 2.3484,0.45666 3.5367,0.57911 0.9102,0.0938 3.4451,-0.52025 2.7443,0.0681 -31.4064,26.36827 -19.1933,25.24658 -35.5755,24.88107 -7.9352,-0.0883 -15.8755,-0.18012 -23.8012,0.33073 -13.42,0.92571 -26.7215,2.90848 -40.0003,5.02571 -16.9292,2.72465 -33.89,5.92217 -51.0885,6.1673 0,0 34.3307,-24.94271 34.3307,-24.94271 z"
       inkscape:connector-curvature="0" />
    <text
       xml:space="preserve"
       style="font-style:normal;font-weight:normal;font-size:40px;line-height:100%;font-family:sans-serif;letter-spacing:0px;word-spacing:0px;fill:#1c241c;fill-opacity:1;stroke:none;stroke-width:1px;stroke-linecap:butt;stroke-linejoin:miter;stroke-opacity:1"
       x="1557.1428"
       y="44.933594"
       id="text8230"
       sodipodi:linespacing="100%"><tspan
         sodipodi:role="line"
         id="tspan8232"
         x="1557.1428"
         y="44.933594"
         style="font-style:normal;font-variant:normal;font-weight:normal;font-stretch:normal;font-size:75px;line-height:100%;font-family:Amaranth;-inkscape-font-specification:'Amaranth, Normal';text-align:start;writing-mode:lr-tb;text-anchor:start;fill:#1c241c">partition entry 1</tspan></text>
    <path
       style="opacity:1;fill:#1c241c;fill-opacity:1"
       id="path8234"
       d="m 1236.9854,158.21791 c 14.3593,0.43579 28.7288,0.31202 43.0929,0.31284 22.4261,0.24335 44.8521,0.32197 67.2792,0.20595 18.0481,0.72385 36.1182,1.38224 54.135,2.69264 19.9744,1.71551 39.6916,5.56877 59.0445,10.72111 13.3796,4.25455 27.281,5.37328 41.2094,6.04 14.5854,0.49657 29.1829,0.3722 43.7743,0.36319 20.1623,1.14837 39.9871,-1.83443 59.7401,-5.49497 19.3708,-4.22097 38.8059,-8.06286 57.941,-13.27329 17.6616,-5.311 34.9492,-11.69757 52.8174,-16.32166 11.1182,-2.80719 22.3982,-4.74149 33.855,-5.20499 10.1577,-0.10835 20.3176,0.002 30.476,0.0399 10.2042,-0.0273 20.4075,0.0394 30.6112,0.12471 12.0285,0.13121 24.0583,0.10021 36.0871,0.0298 0,0 -33.5721,24.39141 -33.5721,24.39141 l 0,0 c -12.0518,-0.0723 -24.1044,-0.10052 -36.156,0.0164 -10.2587,0.068 -20.5168,0.10615 -30.7753,-0.0231 -10.1726,-0.0467 -20.353,-0.18511 -30.5182,0.29295 -10.9885,0.74823 -21.8646,2.5193 -32.5366,5.27639 -17.8561,4.8257 -35.145,11.38947 -52.9379,16.41969 -18.9918,4.91889 -38.2804,8.46478 -57.4719,12.50543 -20.2074,3.58075 -40.4738,6.46694 -61.0657,5.57024 -14.5905,0.0219 -29.1836,-0.0335 -43.7643,-0.63547 -14.1461,-0.76367 -28.2006,-2.12668 -41.6923,-6.77927 -19.051,-5.26901 -38.4795,-9.12903 -58.2562,-10.25913 -17.9084,-0.93706 -35.8221,-1.79464 -53.7333,-2.66957 -22.616,-0.11869 -45.231,-0.0315 -67.8461,0.20595 -14.6513,8.3e-4 -29.3072,-0.11349 -43.9541,0.31283 0,0 34.2169,-24.86001 34.2169,-24.86001 z"
       inkscape:connector-curvature="0" />
    <path
       style="opacity:1;fill:#1c241c;fill-opacity:1"
       id="path8236"
       d="m 1823.3263,126.83069 c 16.5298,0.45894 32.8249,3.64868 48.996,6.88021 24.2178,4.60289 49.0049,4.67981 73.5624,5.26461 47.5041,0.48242 95.0479,1.57974 142.5307,-0.2718 38.0893,-2.70667 75.9932,-7.39615 114.059,-10.40902 31.9877,-2.2306 63.9556,-4.53518 96.0006,-5.77336 20.3984,-0.68608 40.8081,-0.97956 61.2158,-1.23893 8.8995,-0.0223 17.7988,-0.0571 26.6977,-0.17008 0,0 -34.0673,24.74012 -34.0673,24.74012 l 0,0 c -8.7087,-0.15366 -17.4184,-0.2194 -26.1285,-0.21824 -20.0033,-0.151 -40.0094,-0.0982 -60.0056,0.52633 -31.7303,1.09253 -63.4034,3.15846 -95.0779,5.30739 -37.9083,3.0688 -75.6641,7.93794 -113.6577,9.88242 -47.6522,1.154 -95.3364,0.0375 -142.9997,0.39112 -25.3185,-0.15721 -50.9634,0.72601 -75.8879,-4.51687 -16.2329,-3.31254 -32.6845,-6.42396 -49.3406,-5.61659 0,0 34.103,-24.77731 34.103,-24.77731 z"
       inkscape:connector-curvature="0" />
    <path
       style="opacity:1;fill:#1c241c;fill-opacity:1"
       id="path8238"
       d="m 2367.8997,422.0314 c -35.4278,8.7288 -71.769,11.2926 -108.0595,13.5054 -50.0193,2.7696 -100.1123,3.2695 -150.1942,3.4487 -39.6286,-0.043 -79.255,0.436 -118.8828,0.5401 -27.4602,0.9604 -54.7547,-0.7971 -82.0142,-3.8783 -15.6349,-1.659 -30.7988,-5.9071 -46.316,-8.2197 -13.229,-2.5314 -26.6771,-3.479 -40.0324,-5.1135 -11.4201,-1.5144 -22.9308,-1.947 -34.435,-2.1877 -12.9175,0.2175 -25.7659,-1.1312 -38.6375,-1.9852 -14.9024,-0.8713 -29.8349,-0.9785 -44.758,-1.086 -17.4725,-4e-4 -34.9445,-0.06 -52.4164,-0.192 -21.7212,-0.1063 -43.4427,0.01 -65.1639,0.073 -20.1854,0.023 -40.3704,-0.053 -60.5557,-0.025 -14.5296,0.072 -29.0582,0.2617 -43.5881,0.25 -15.2531,-0.09 -30.5067,-0.1641 -45.76,-0.1001 -12.3369,-0.4312 -23.7031,3.3578 -35.3255,6.7649 -9.6353,3.4596 -19.6224,5.6339 -29.5254,8.1342 -10.4175,2.003 -20.908,3.4612 -31.3251,5.4773 -7.9008,0.7133 -14.6795,4.8802 -22.216,6.8878 -6.6028,1.4029 -13.4069,1.4946 -20.1325,1.6175 -6.7747,0.013 -13.5494,0 -20.3241,-0.01 -6.159,0.01 -12.3179,-0.022 -18.4769,-0.037 -5.9206,-0.026 -11.8409,0.039 -17.7614,0.049 -4.4486,0 -8.8973,0.053 -13.3458,0.014 -2.3519,-0.01 -4.7031,0.048 -7.0548,0.05 0,0 34.4294,-25.0145 34.4294,-25.0145 l 0,0 c 2.3056,0 4.6107,0.06 6.9165,0.05 4.4362,-0.038 8.8726,0.015 13.309,0.013 5.8747,0.01 11.7493,0.075 17.6242,0.054 6.1713,-0.01 12.3424,-0.027 18.5136,0.023 6.7462,0.033 13.4945,0.1038 20.2391,-0.084 6.5444,-0.2232 13.1632,-0.5157 19.4528,-2.5189 7.2902,-2.4825 14.3749,-5.589 22.1622,-6.2716 10.4547,-1.8851 20.9929,-3.3178 31.3328,-5.804 9.7957,-2.442 19.618,-4.7621 29.1691,-8.0828 11.7043,-3.5027 23.3781,-6.1011 35.7226,-5.5705 15.3452,0.065 30.6906,-0.012 46.0356,-0.1001 14.3004,-0.011 28.5994,0.1769 42.8994,0.2502 20.2094,0.029 40.4185,-0.048 60.6279,-0.028 21.6665,0.058 43.3334,0.1663 64.9998,0.045 17.6191,-0.1406 35.239,-0.2492 52.8586,-0.094 15.0798,0.09 30.1709,0.1603 45.2293,1.0573 12.8522,0.8872 25.6829,2.1111 38.586,1.799 11.5625,0.3132 23.127,0.8318 34.5766,2.5981 13.3978,1.7037 26.8922,2.673 40.1771,5.1891 15.1452,2.5996 29.9422,6.9794 45.2454,8.7592 26.9846,3.2397 54.0187,4.6207 81.2113,3.8889 39.1009,0.2098 78.2,0.8434 117.3029,0.58 49.9478,-0.2724 99.9308,-0.5382 149.8091,-3.4601 37.3619,-2.7638 75.0299,-5.8383 111.012,-17.0069 0,0 -33.1411,25.7472 -33.1411,25.7472 z"
       inkscape:connector-curvature="0" />
    <text
       xml:space="preserve"
       style="font-style:normal;font-weight:normal;font-size:40px;line-height:100%;font-family:sans-serif;letter-spacing:0px;word-spacing:0px;fill:#1c241c;fill-opacity:1;stroke:none;stroke-width:1px;stroke-linecap:butt;stroke-linejoin:miter;stroke-opacity:1"
       x="1563.3799"
       y="300.789"
       id="text8230-5"
       sodipodi:linespacing="100%"><tspan
         sodipodi:role="line"
         id="tspan8232-7"
         x="1563.3799"
         y="300.789"
         style="font-style:normal;font-variant:normal;font-weight:normal;font-stretch:normal;font-size:75px;line-height:100%;font-family:Amaranth;-inkscape-font-specification:'Amaranth, Normal';text-align:start;writing-mode:lr-tb;text-anchor:start;fill:#1c241c">partition entry 2</tspan></text>
    <text
       xml:space="preserve"
       style="font-style:normal;font-weight:normal;font-size:40px;line-height:100%;font-family:sans-serif;letter-spacing:0px;word-spacing:0px;fill:#1c241c;fill-opacity:1;stroke:none;stroke-width:1px;stroke-linecap:butt;stroke-linejoin:miter;stroke-opacity:1"
       x="1566.2371"
       y="549.36035"
       id="text8230-50"
       sodipodi:linespacing="100%"><tspan
         sodipodi:role="line"
         id="tspan8232-4"
         x="1566.2371"
         y="549.36035"
         style="font-style:normal;font-variant:normal;font-weight:normal;font-stretch:normal;font-size:75px;line-height:100%;font-family:Amaranth;-inkscape-font-specification:'Amaranth, Normal';text-align:start;writing-mode:lr-tb;text-anchor:start;fill:#1c241c">partition entry 3</tspan></text>
  </g>
</svg>
